<?xml version="1.0" encoding="utf-8"?>
<!-- Generator: Adobe Illustrator 13.0.0, SVG Export Plug-In  -->
<!DOCTYPE svg PUBLIC "-//W3C//DTD SVG 1.1//EN" "http://www.w3.org/Graphics/SVG/1.1/DTD/svg11.dtd" [
	<!ENTITY ns_flows "http://ns.adobe.com/Flows/1.0/">
]>
<svg version="1.1"
	 xmlns="http://www.w3.org/2000/svg" xmlns:xlink="http://www.w3.org/1999/xlink" xmlns:a="http://ns.adobe.com/AdobeSVGViewerExtensions/3.0/"
	 x="0px" y="0px" width="382px" height="92px" viewBox="-1.091 -5.564 382 92" enable-background="new -1.091 -5.564 382 92"
	 xml:space="preserve">
<defs>
</defs>
<path fill="#FEFEFE" d="M4.125,80.845h1.719L8.8,73.488l2.956,7.356h1.719L17.6,70.189h-2.269l-2.544,7.149L9.9,70.189H8.112
	l-2.818,7.149l-2.75-7.149H0L4.125,80.845z M16.155,80.845h2.544l1.237-2.337h6.736l1.307,2.337h2.819l-6.188-10.655h-2.406
	L16.155,80.845z M20.968,76.582l2.406-4.33l2.269,4.33H20.968z M31.898,80.845h10.518v-1.994h-8.043v-8.661h-2.475V80.845z
	 M43.723,80.845H54.24v-1.994h-7.975v-8.661h-2.543V80.845z M64.002,73.146c0,0.412,0.069,0.824,0.206,1.168
	c0.139,0.412,0.344,0.688,0.619,0.964c0.274,0.274,0.619,0.48,0.963,0.687c0.412,0.138,0.756,0.206,1.168,0.206
	c0.413,0,0.824-0.068,1.169-0.206c0.344-0.206,0.688-0.412,0.962-0.687c0.275-0.275,0.481-0.619,0.688-0.964
	c0.137-0.344,0.205-0.756,0.205-1.168c0-0.413-0.068-0.757-0.205-1.168c-0.207-0.345-0.413-0.688-0.688-0.964
	c-0.274-0.205-0.549-0.481-0.962-0.617c-0.345-0.138-0.688-0.207-1.1-0.207c-0.481,0-0.825,0.069-1.169,0.207
	c-0.412,0.136-0.688,0.412-0.962,0.617c-0.275,0.275-0.55,0.619-0.688,0.964C64.071,72.389,64.002,72.732,64.002,73.146z
	 M85.176,80.845h1.718l5.845-10.655h-2.476l-4.124,7.699l-4.331-7.699h-2.819L85.176,80.845z M93.356,80.845h2.475V70.189h-2.475
	V80.845z M104.012,72.114h4.881v-1.925H96.587v1.925h4.882v8.73h2.543V72.114z M109.649,80.845h2.475v-3.986h2.337l4.331,3.986
	h3.575l-4.95-3.986h1.375c0.55,0,1.03-0.069,1.375-0.207c0.344-0.138,0.618-0.412,0.825-0.688c0.137-0.343,0.206-0.687,0.206-1.238
	v-2.474c0-0.482-0.069-0.894-0.206-1.238c-0.207-0.273-0.481-0.481-0.825-0.617c-0.345-0.138-0.825-0.207-1.375-0.207h-9.143V80.845
	z M117.691,72.046c0.276,0,0.481,0,0.619,0.068c0.207,0,0.276,0.069,0.412,0.206c0.069,0.138,0.069,0.345,0.069,0.55v1.307
	c0,0.206,0,0.412-0.069,0.481c-0.136,0.138-0.205,0.274-0.412,0.274c-0.138,0.069-0.343,0.069-0.619,0.069h-5.567v-2.956H117.691z
	 M123.948,80.845h2.475V70.189h-2.475V80.845z M129.585,80.845h2.544v-4.056h4.468v-1.925h-4.468v-2.818h8.317v-1.856h-10.861
	V80.845z M141.203,80.845h2.475V70.189h-2.475V80.845z M146.84,80.845h11.068v-1.994h-8.593v-2.611h4.949v-1.856h-4.949v-2.405
	h8.524v-1.788h-11V80.845z M160.177,80.845h6.255c0.963,0.068,1.788,0,2.544-0.138c0.688-0.137,1.307-0.343,1.856-0.687
	c0.48-0.275,0.894-0.688,1.307-1.1c0.343-0.482,0.619-1.032,0.756-1.582c0.206-0.55,0.274-1.169,0.274-1.856
	c0-1.1-0.206-2.062-0.688-2.886c-0.412-0.757-1.1-1.376-2.063-1.788c-0.894-0.412-1.992-0.619-3.368-0.619h-6.874V80.845z
	 M162.721,78.851v-6.736h4.398c1.169,0,2.063,0.274,2.613,0.825c0.618,0.549,0.894,1.374,0.894,2.474
	c0,0.688-0.068,1.238-0.275,1.651c-0.206,0.481-0.481,0.824-0.894,1.101c-0.412,0.204-0.895,0.412-1.513,0.549
	c-0.55,0.069-1.236,0.137-2.063,0.137H162.721z M183.825,73.146c0,0.412,0.068,0.824,0.274,1.168
	c0.139,0.412,0.344,0.688,0.619,0.964c0.274,0.274,0.55,0.48,0.962,0.687c0.345,0.138,0.756,0.206,1.169,0.206
	s0.756-0.068,1.169-0.206c0.344-0.206,0.688-0.412,0.962-0.687c0.275-0.275,0.481-0.619,0.619-0.964
	c0.137-0.344,0.206-0.756,0.206-1.168c0-0.413-0.069-0.757-0.206-1.168c-0.138-0.345-0.344-0.688-0.619-0.964
	c-0.274-0.205-0.618-0.481-0.962-0.617c-0.344-0.138-0.756-0.207-1.169-0.207s-0.824,0.069-1.169,0.207
	c-0.344,0.136-0.688,0.412-0.962,0.617c-0.275,0.275-0.48,0.619-0.619,0.964C183.894,72.389,183.825,72.732,183.825,73.146z
	 M201.424,80.845h6.256c0.894,0.068,1.787,0,2.475-0.138c0.756-0.137,1.375-0.343,1.856-0.687c0.55-0.275,0.963-0.688,1.306-1.1
	c0.344-0.482,0.619-1.032,0.826-1.582c0.137-0.55,0.273-1.169,0.273-1.856c0-1.1-0.273-2.062-0.687-2.886
	c-0.481-0.757-1.169-1.376-2.063-1.788s-2.063-0.619-3.369-0.619h-6.874V80.845z M203.898,78.851v-6.736h4.399
	c1.169,0,2.063,0.274,2.682,0.825c0.55,0.549,0.825,1.374,0.825,2.474c0,0.688-0.069,1.238-0.275,1.651
	c-0.206,0.481-0.481,0.824-0.895,1.101c-0.343,0.204-0.893,0.412-1.443,0.549c-0.618,0.069-1.306,0.137-2.062,0.137H203.898z
	 M218.885,78.851v-6.736h8.25v6.736H218.885z M216.41,72.732v5.637c0,0.481,0.069,0.896,0.138,1.237
	c0.068,0.276,0.275,0.551,0.48,0.758c0.207,0.206,0.414,0.343,0.757,0.412c0.344,0.068,0.825,0.068,1.306,0.068h7.838
	c0.549,0,0.962,0,1.306-0.068c0.344-0.069,0.618-0.206,0.826-0.412c0.205-0.207,0.343-0.481,0.411-0.758
	c0.069-0.342,0.138-0.756,0.138-1.237v-5.637c0-0.549-0.068-0.963-0.138-1.235c-0.068-0.346-0.206-0.619-0.411-0.827
	c-0.208-0.138-0.482-0.273-0.826-0.411c-0.344-0.069-0.757-0.069-1.306-0.069h-7.838c-0.48,0-0.962,0-1.306,0.069
	c-0.343,0.138-0.55,0.273-0.757,0.411c-0.205,0.208-0.412,0.481-0.48,0.827C216.479,71.77,216.41,72.184,216.41,72.732z
	 M235.041,70.189h-2.476v8.18c0,0.481,0,0.896,0.139,1.237c0.067,0.276,0.205,0.551,0.411,0.758
	c0.206,0.206,0.481,0.343,0.825,0.412c0.344,0.068,0.756,0.068,1.236,0.068h6.807c0.481,0,0.894,0,1.238-0.068
	c0.344-0.069,0.618-0.206,0.824-0.412c0.206-0.207,0.344-0.481,0.412-0.758c0.138-0.342,0.138-0.756,0.138-1.237v-8.18h-2.475v8.661
	h-7.08V70.189z M247.758,80.845h8.525c1.03,0,1.787-0.138,2.337-0.48c0.55-0.344,0.824-0.895,0.824-1.581v-1.375
	c0-0.55-0.205-1.031-0.55-1.376c-0.274-0.343-0.756-0.619-1.374-0.688c0.55-0.067,1.03-0.274,1.306-0.549
	c0.344-0.274,0.481-0.688,0.481-1.238v-1.306c0-0.482-0.068-0.894-0.207-1.238c-0.206-0.273-0.48-0.481-0.825-0.617
	c-0.344-0.138-0.824-0.207-1.373-0.207h-9.145V80.845z M255.87,76.239c0.275,0,0.55,0,0.688,0.069
	c0.206,0.068,0.345,0.137,0.412,0.273c0.069,0.139,0.138,0.345,0.138,0.619v0.825c0,0.206-0.068,0.412-0.138,0.551
	c-0.067,0.137-0.206,0.273-0.412,0.273c-0.138,0.07-0.412,0.07-0.688,0.07h-5.637v-2.682H255.87z M255.87,71.908
	c0.275,0,0.48,0,0.688,0.069c0.137,0.068,0.274,0.137,0.345,0.206c0.067,0.137,0.137,0.274,0.137,0.481v1.031
	c0,0.206-0.069,0.344-0.137,0.48c-0.07,0.137-0.208,0.206-0.345,0.206c-0.207,0.069-0.412,0.069-0.688,0.069h-5.637v-2.544H255.87z
	 M261.92,80.845h10.518v-1.994h-8.043v-8.661h-2.475V80.845z M273.744,80.845h11.068v-1.994h-8.593v-2.611h4.949v-1.856h-4.949
	v-2.405h8.454v-1.788h-10.93V80.845z M304.13,72.114v1.993l2.475-0.411v-0.964c0-0.549-0.069-0.963-0.138-1.235
	c-0.138-0.346-0.275-0.619-0.48-0.827c-0.207-0.138-0.482-0.273-0.826-0.411c-0.274-0.069-0.756-0.069-1.237-0.069h-6.393
	c-0.482,0-0.895,0-1.238,0.069c-0.343,0.138-0.618,0.273-0.825,0.411c-0.205,0.208-0.343,0.481-0.412,0.827
	c-0.138,0.272-0.138,0.687-0.138,1.235v5.637c0,0.481,0,0.896,0.138,1.237c0.069,0.276,0.207,0.551,0.412,0.758
	c0.207,0.206,0.482,0.343,0.825,0.412c0.344,0.068,0.756,0.068,1.238,0.068h6.393c0.481,0,0.963,0,1.237-0.068
	c0.344-0.069,0.619-0.206,0.826-0.412c0.205-0.207,0.343-0.481,0.48-0.758c0.068-0.342,0.138-0.756,0.138-1.237v-1.305l-2.475-0.482
	v2.269h-6.738v-6.736H304.13z M309.423,80.845h2.474v-4.605h7.769v4.605h2.544V70.189h-2.544v4.124h-7.769v-4.124h-2.474V80.845z
	 M323.309,80.845h2.476l1.237-2.337h6.806l1.238,2.337h2.817l-6.118-10.655h-2.406L323.309,80.845z M328.053,76.582l2.406-4.33
	l2.337,4.33H328.053z M338.983,80.845h2.475v-3.986h2.337l4.331,3.986h3.575l-4.95-3.986h1.443c0.55,0,0.964-0.069,1.307-0.207
	c0.413-0.138,0.619-0.412,0.825-0.688c0.138-0.343,0.274-0.687,0.274-1.238v-2.474c0-0.482-0.137-0.894-0.274-1.238
	c-0.206-0.273-0.412-0.481-0.825-0.617c-0.343-0.138-0.757-0.207-1.307-0.207h-9.211V80.845z M347.026,72.046
	c0.275,0,0.48,0,0.688,0.068c0.137,0,0.274,0.069,0.344,0.206c0.068,0.138,0.137,0.345,0.137,0.55v1.307
	c0,0.206-0.068,0.412-0.137,0.481c-0.069,0.138-0.207,0.274-0.344,0.274c-0.207,0.069-0.412,0.069-0.688,0.069h-5.568v-2.956
	H347.026z M363.388,72.114v1.169l2.405-0.413v-0.273c0-0.482-0.068-0.896-0.137-1.17c-0.137-0.344-0.275-0.549-0.481-0.757
	c-0.206-0.206-0.481-0.343-0.825-0.411c-0.344-0.069-0.757-0.069-1.237-0.069h-7.356c-0.48,0-0.962,0-1.236,0.069
	c-0.345,0.138-0.619,0.273-0.825,0.411c-0.206,0.208-0.344,0.481-0.481,0.827c-0.068,0.272-0.138,0.687-0.138,1.235v5.637
	c0,0.481,0.069,0.896,0.138,1.237c0.138,0.276,0.275,0.551,0.481,0.758c0.206,0.206,0.48,0.343,0.825,0.412
	c0.274,0.068,0.756,0.068,1.236,0.068h7.356c0.551,0,0.963,0,1.308-0.068c0.343-0.069,0.617-0.206,0.755-0.412
	c0.206-0.207,0.413-0.481,0.481-0.758c0.068-0.342,0.137-0.756,0.137-1.237v-3.711h-6.529v1.787h4.124v2.405h-7.837v-6.736H363.388z
	 M368.749,80.845h11.069v-1.994h-8.594v-2.611h4.949v-1.856h-4.949v-2.405h8.456v-1.788h-10.932V80.845z"/>
<path fill="#FEFEFE" d="M0.139,57.952h56.989V47.091H13.611V0H0.139V57.952z M310.591,57.952h13.475V33.067h42.141v24.885h13.612V0
	h-13.612v22.48h-42.141V0h-13.475V57.952z M288.73,10.105v3.576h11.893v-0.963c0.068-3.299-0.48-5.912-1.375-7.768
	c-1.031-1.855-2.543-3.162-4.675-3.85c-2.131-0.756-4.881-1.1-8.318-1.1h-32.929c-2.681,0-5.019,0.207-6.805,0.619
	c-1.856,0.413-3.369,1.1-4.469,2.131c-1.101,1.031-1.926,2.475-2.406,4.193c-0.481,1.788-0.688,4.056-0.688,6.738v6.461
	c0,2.681,0.206,4.95,0.688,6.737c0.48,1.788,1.306,3.163,2.406,4.194c1.1,1.031,2.612,1.718,4.469,2.131
	c1.786,0.412,4.124,0.618,6.805,0.618h36.16v13.268h-38.703v-3.712H238.89v0.895c0,2.749,0.206,4.949,0.688,6.736
	c0.55,1.787,1.307,3.161,2.476,4.193c1.1,1.031,2.612,1.719,4.469,2.131c1.855,0.481,4.124,0.618,6.873,0.618h33.549
	c2.682,0,5.019-0.137,6.874-0.618c1.856-0.412,3.3-1.1,4.469-2.131c1.1-1.032,1.925-2.406,2.405-4.193
	c0.482-1.787,0.757-3.987,0.757-6.736v-7.976c0-2.681-0.274-4.949-0.757-6.736c-0.48-1.788-1.306-3.163-2.405-4.194
	c-1.169-1.031-2.612-1.718-4.469-2.131c-1.855-0.481-4.192-0.688-6.874-0.618h-36.16V10.105H288.73z M210.154,57.952h13.474V0
	h-13.474V57.952z M158.39,57.952h9.349L199.637,0h-13.475l-22.411,41.936L140.31,0h-15.398L158.39,57.952z"/>
<polygon fill="#E6B948" points="101.606,0 110.955,0 142.853,57.952 133.572,57.952 129.379,57.952 113.361,57.952 113.361,47.022 
	123.467,46.885 107.037,16.086 89.782,46.885 97.688,46.747 97.688,57.952 83.525,57.952 83.525,57.952 68.127,57.952 "/>
</svg>
